<svg xmlns="http://www.w3.org/2000/svg" width="1920" height="1260" viewBox="0 0 1920 1260">
  <defs>
    <style>
      .cls-1 {
        fill-rule: evenodd;
      }
    </style>
  </defs>
  <path id="Color_Fill_1" data-name="Color Fill 1" class="cls-1" d="M0,0H1920V795l-94,2c-27.82-.166-58.73-2.409-82,2,0.67-.667,1.33-1.333,2-2q7.005-13.5,14-27c18.6-63.754-28.74-100.436-79-108-22.09-3.324-49.88,26.66-68,16q0.495-26.5,1-53c-26.69-21.507-78.29-9.638-121-16l-92-2H1291l-144,2c-36.06,5.5-85.43-3.577-111,13-6.06,62.06,5.02,133.422,17,183l-45-2-32,1c-9.645-2.564-21.189-8.822-33-11-29.171-5.379-58.8,4.684-80,9l-54,1H779c-11.6-3.066-56-20.513-79-11l-6,6-71,6-16-6-116,2c-16.741-2.846-36.488-13.01-59-9-16.608,2.958-34.562,9.2-54,12l-41-8c-13.048-1.386-27.821,5.458-44,3l-47-4c-21.459,3.63-42.425,12.427-69,9l-40-4c-30.316,4.586-62.222,2.706-91-1-13.946-1.8-28.966,5.845-46,6V0ZM1680,690c54.78,2.74,69.17,56.634,40,95-20.26,26.648-81.19,15.666-122,13q4.5-18.5,9-37c4.62-4.783,10.28-4.854,14-11,4.47-7.374,3.18-15.966,7-25C1637.68,702.111,1655.75,699.428,1680,690Z"/>
</svg>
